<?xml version="1.0" encoding="UTF-8" standalone="no"?>
<!-- Created with Inkscape (http://www.inkscape.org/) -->

<svg
   width="256"
   height="256"
   viewBox="0 0 67.733332 67.733333"
   version="1.1"
   id="svg5"
   inkscape:version="1.2.2 (b0a8486541, 2022-12-01)"
   sodipodi:docname="logo.svg"
   xml:space="preserve"
   inkscape:export-filename="option-4.png"
   inkscape:export-xdpi="96"
   inkscape:export-ydpi="96"
   xmlns:inkscape="http://www.inkscape.org/namespaces/inkscape"
   xmlns:sodipodi="http://sodipodi.sourceforge.net/DTD/sodipodi-0.dtd"
   xmlns="http://www.w3.org/2000/svg"
   xmlns:svg="http://www.w3.org/2000/svg"><sodipodi:namedview
     id="namedview7"
     pagecolor="#ffffff"
     bordercolor="#000000"
     borderopacity="0.25"
     inkscape:showpageshadow="2"
     inkscape:pageopacity="0.0"
     inkscape:pagecheckerboard="0"
     inkscape:deskcolor="#d1d1d1"
     inkscape:document-units="mm"
     showgrid="false"
     inkscape:zoom="2.9125643"
     inkscape:cx="119.82568"
     inkscape:cy="134.93264"
     inkscape:window-width="1920"
     inkscape:window-height="1172"
     inkscape:window-x="0"
     inkscape:window-y="0"
     inkscape:window-maximized="1"
     inkscape:current-layer="layer1" /><defs
     id="defs2" /><g
     inkscape:label="Layer 1"
     inkscape:groupmode="layer"
     id="layer1"><g
       id="g981"><circle
         style="fill:#a0c1d2;fill-opacity:1;stroke:none;stroke-width:2.5082"
         id="path1268"
         cx="33.866665"
         cy="33.866665"
         r="33.866665" /><g
         id="g2237"
         transform="rotate(29.735907,-143.61325,176.65932)"><path
           style="fill:none;fill-opacity:1;stroke:#ebf2f6;stroke-width:0.6;stroke-dasharray:none;stroke-opacity:1"
           id="path1588"
           sodipodi:type="arc"
           sodipodi:cx="-64.618683"
           sodipodi:cy="-24.352562"
           sodipodi:rx="16.6369"
           sodipodi:ry="16.6369"
           sodipodi:start="2.325353"
           sodipodi:end="6.0204379"
           sodipodi:arc-type="slice"
           d="m -76.014389,-12.231328 a 16.6369,16.6369 0 0 1 -3.825937,-18.835996 16.6369,16.6369 0 0 1 16.490702,-9.873666 16.6369,16.6369 0 0 1 14.796863,12.267249 l -16.065922,4.321179 z" /><path
           style="fill:#ebf2f6;fill-opacity:1;stroke:#ebf2f6;stroke-width:0.6;stroke-opacity:1;stroke-dasharray:none"
           id="path2056"
           sodipodi:type="arc"
           sodipodi:cx="-64.618683"
           sodipodi:cy="-24.352562"
           sodipodi:rx="16.6369"
           sodipodi:ry="16.6369"
           sodipodi:start="4.856696"
           sodipodi:end="6.0412174"
           sodipodi:arc-type="slice"
           d="m -62.226185,-40.816535 a 16.6369,16.6369 0 0 1 13.759741,12.477544 l -16.152239,3.986429 z" /><path
           style="color:#000000;fill:#ebf2f6;-inkscape-stroke:none"
           d="m -77.827691,-37.363302 c 0,0 6.026647,7.023008 9.413106,10.16146 1.135393,1.052238 3.636605,2.888251 3.636605,2.888251 l 0.140869,-0.140869 c 0,0 -1.83601,-2.501215 -2.88825,-3.636605 -3.138453,-3.386459 -10.161461,-9.413106 -10.161461,-9.413106 z"
           id="path2228"
           sodipodi:nodetypes="caccacc" /></g><path
         id="path6"
         style="fill:#0a4f72;fill-opacity:1;stroke:none;stroke-width:0.0288622;stroke-dasharray:none;stroke-opacity:1"
         d="m 45.834627,19.800695 c 0,0 2.968414,1.576406 4.598094,1.949331 3.259364,0.745854 6.717148,-0.25716 9.976514,0.488694 1.629676,0.372922 4.598089,1.949333 4.598089,1.949333 l -2.187819,9.56074 c 0,0 -2.968413,-1.57641 -4.59809,-1.949337 -3.259367,-0.745852 -6.71715,0.257167 -9.976514,-0.488686 -1.629679,-0.372926 -4.598095,-1.949337 -4.598095,-1.949337 z m -7.814492,27.910427 6.488538,-28.354925 -2.073628,-0.474519 -6.488594,28.354925 z" /><path
         id="path1056"
         style="fill:#9fb485;fill-opacity:1;stroke:none;stroke-width:1.65146"
         d="M 24.699268 41.600045 L 3.1812012 48.165019 A 33.866665 33.866665 0 0 0 16.282727 62.787382 C 21.609619 65.84076 27.592867 67.504079 33.777266 67.504924 C 41.139963 67.504078 48.191022 65.149635 54.186873 60.931681 A 33.866665 33.866665 0 0 0 65.523649 45.864901 L 50.452734 48.872469 L 24.699268 41.600045 z " /><path
         style="fill:#ebf2f6;fill-opacity:1;stroke:none;stroke-width:1"
         d="m 41.712806,47.512403 9.036616,-33.72511"
         id="path1885" /><path
         id="path2511"
         style="fill:#002e56;fill-opacity:1;stroke:none;stroke-width:1.65146"
         d="M 32.58044 56.327311 L 14.55105 61.672721 A 33.866665 33.866665 0 0 0 33.849097 67.732817 C 33.864438 67.732783 33.879751 67.732354 33.895089 67.7323 A 33.866665 33.866665 0 0 0 36.245333 67.64445 C 36.362286 67.636046 36.478953 67.626132 36.595699 67.616545 A 33.866665 33.866665 0 0 0 38.699447 67.37935 C 38.84975 67.357659 38.999671 67.33427 39.149548 67.31062 A 33.866665 33.866665 0 0 0 41.24141 66.914779 C 41.34874 66.891009 41.455773 66.866176 41.562838 66.841398 A 33.866665 33.866665 0 0 0 52.386466 62.199304 L 32.58044 56.327311 z " /></g></g></svg>
