<?xml version="1.0" encoding="UTF-8" standalone="no"?>
<!-- Created with Inkscape (http://www.inkscape.org/) -->

<svg
   version="1.1"
   id="svg2"
   xml:space="preserve"
   width="640"
   height="256"
   viewBox="0 0 640 256"
   sodipodi:docname="logo-dark.svg"
   inkscape:version="1.2.2 (b0a8486541, 2022-12-01)"
   inkscape:export-filename="/home/pino/projects/scse-app-sci/src/public/sci_logo_white.png"
   inkscape:export-xdpi="96"
   inkscape:export-ydpi="96"
   xmlns:inkscape="http://www.inkscape.org/namespaces/inkscape"
   xmlns:sodipodi="http://sodipodi.sourceforge.net/DTD/sodipodi-0.dtd"
   xmlns="http://www.w3.org/2000/svg"
   xmlns:svg="http://www.w3.org/2000/svg"><defs
     id="defs6"><inkscape:path-effect
       effect="perspective-envelope"
       up_left_point="1631.5242,446.78881"
       up_right_point="1808.9795,446.78881"
       down_left_point="1631.5242,2564.8514"
       down_right_point="1808.9795,2564.8514"
       id="path-effect1"
       is_visible="true"
       lpeversion="1"
       deform_type="perspective"
       horizontal_mirror="false"
       vertical_mirror="false"
       overflow_perspective="false" /></defs><sodipodi:namedview
     id="namedview4"
     pagecolor="#ffffff"
     bordercolor="#666666"
     borderopacity="1.0"
     inkscape:pageshadow="2"
     inkscape:pageopacity="0"
     inkscape:pagecheckerboard="true"
     showgrid="false"
     width="3000px"
     fit-margin-top="0"
     fit-margin-left="0"
     fit-margin-right="0"
     fit-margin-bottom="0"
     inkscape:zoom="1.7962636"
     inkscape:cx="487.12227"
     inkscape:cy="80.166408"
     inkscape:window-width="1920"
     inkscape:window-height="1172"
     inkscape:window-x="0"
     inkscape:window-y="0"
     inkscape:window-maximized="1"
     inkscape:current-layer="g8"
     inkscape:showpageshadow="2"
     inkscape:deskcolor="#d1d1d1" /><g
     id="g8"
     inkscape:groupmode="layer"
     inkscape:label="ink_ext_XXXXXX"
     transform="matrix(1.3333333,0,0,-1.3333333,-474.31392,3852.5879)"><path
       style="fill:#012e55;fill-opacity:1;stroke-width:3.84579"
       d="m 633.80211,3340.2772 c -7.19276,0 -12.71777,-6.2888 -12.71777,-11.9649 v -28.3301 h 57.60644 v 40.295 z"
       id="path1274"
       sodipodi:nodetypes="sscccs" /><rect
       style="fill:none;stroke:#012e55;stroke-width:2.83465;stroke-dasharray:none;stroke-opacity:1"
       id="rect147"
       width="172.81999"
       height="120.87596"
       x="621.16626"
       y="-3340.1936"
       rx="14.137178"
       ry="11.879664"
       transform="scale(1,-1)" /><path
       style="fill:#000000;stroke:#012e55;stroke-width:2.83465;stroke-dasharray:none;stroke-opacity:1"
       d="M 678.7729,3339.7306 V 3219.4391"
       id="path1020" /><path
       style="fill:#000000;stroke:#012e55;stroke-width:2.83465;stroke-dasharray:none;stroke-opacity:1"
       d="M 736.37956,3339.7306 V 3219.4391"
       id="path1022" /><path
       style="fill:#000000;stroke:#012e55;stroke-width:2.83465;stroke-dasharray:none;stroke-opacity:1"
       d="M 621.28762,3299.9017 H 793.5231"
       id="path1028" /><path
       style="fill:#000000;stroke:#012e55;stroke-width:2.83465;stroke-dasharray:none;stroke-opacity:1"
       d="M 621.28762,3259.6097 H 793.5231"
       id="path1032" /><g
       id="path1038"
       transform="matrix(2.8346457,0,0,-2.8346457,611.03551,2909.9294)" /><path
       style="fill:none;fill-opacity:1;stroke:#729628;stroke-width:2.83465;stroke-dasharray:none;stroke-opacity:1"
       d="m 697.62804,3279.5848 8.20168,-8.2016 11.80625,20.449"
       id="path1391" /><path
       style="fill:none;fill-opacity:1;stroke:#729628;stroke-width:2.83465;stroke-dasharray:none;stroke-opacity:1"
       d="m 754.62805,3239.0848 8.20169,-8.2017 11.80624,20.449"
       id="path1519" /><g
       id="g1648"
       transform="matrix(2.8346457,0,0,-2.8346457,611.03551,3374.9295)"><path
         style="fill:none;fill-opacity:1;stroke:#965e28;stroke-width:1;stroke-dasharray:none;stroke-opacity:1"
         d="m 30.474301,44.003391 7.595105,7.595108"
         id="path1642" /><path
         style="fill:none;fill-opacity:1;stroke:#965e28;stroke-width:1;stroke-dasharray:none;stroke-opacity:1"
         d="m 30.474299,51.598498 7.595108,-7.595105"
         id="path1644" /></g><g
       id="g1654"
       transform="matrix(2.8346457,0,0,-2.8346457,668.03553,3415.4296)"><path
         style="fill:none;fill-opacity:1;stroke:#965e28;stroke-width:1;stroke-dasharray:none;stroke-opacity:1"
         d="m 30.474301,44.003391 7.595105,7.595108"
         id="path1650" /><path
         style="fill:none;fill-opacity:1;stroke:#965e28;stroke-width:1;stroke-dasharray:none;stroke-opacity:1"
         d="m 30.474299,51.598498 7.595108,-7.595105"
         id="path1652" /></g><g
       id="g472"
       transform="translate(-255.30008,-20.488438)"><circle
         style="fill:#a0c1d2;fill-opacity:1;stroke:none;stroke-width:7.10986"
         id="path1268"
         cx="707.03552"
         cy="-2813.9294"
         r="95.999992"
         transform="scale(1,-1)" /><g
         id="g2237"
         transform="matrix(2.4613819,-1.4059926,-1.4059926,-2.4613819,805.8115,2641.5382)"><path
           style="fill:none;fill-opacity:1;stroke:#ebf2f6;stroke-width:0.2;stroke-opacity:1"
           id="path1588"
           sodipodi:type="arc"
           sodipodi:cx="-64.618683"
           sodipodi:cy="-24.352562"
           sodipodi:rx="16.6369"
           sodipodi:ry="16.6369"
           sodipodi:start="2.325353"
           sodipodi:end="6.0204379"
           sodipodi:arc-type="slice"
           d="m -76.014389,-12.231328 a 16.6369,16.6369 0 0 1 -3.825937,-18.835996 16.6369,16.6369 0 0 1 16.490702,-9.873666 16.6369,16.6369 0 0 1 14.796863,12.267249 l -16.065922,4.321179 z" /><path
           style="fill:#ebf2f6;fill-opacity:1;stroke:#ebf2f6;stroke-width:0.2;stroke-opacity:1"
           id="path2056"
           sodipodi:type="arc"
           sodipodi:cx="-64.618683"
           sodipodi:cy="-24.352562"
           sodipodi:rx="16.6369"
           sodipodi:ry="16.6369"
           sodipodi:start="4.856696"
           sodipodi:end="6.0412174"
           sodipodi:arc-type="slice"
           d="m -62.226185,-40.816535 a 16.6369,16.6369 0 0 1 13.759741,12.477544 l -16.152239,3.986429 z" /><path
           style="color:#000000;fill:#ebf2f6;-inkscape-stroke:none"
           d="m -77.827691,-37.363302 c 0,0 6.026647,7.023008 9.413106,10.16146 1.135393,1.052238 3.636605,2.888251 3.636605,2.888251 l 0.140869,-0.140869 c 0,0 -1.83601,-2.501215 -2.88825,-3.636605 -3.138453,-3.386459 -10.161461,-9.413106 -10.161461,-9.413106 z"
           id="path2228"
           sodipodi:nodetypes="caccacc" /></g><path
         id="path6-3"
         style="fill:#0a4f72;fill-opacity:1;stroke:none;stroke-width:0.0818141;stroke-dasharray:none;stroke-opacity:1"
         d="m 740.96044,2853.8014 c 0,0 8.4144,-4.4685 13.03397,-5.5256 9.23914,-2.1142 19.04073,0.7289 28.27988,-1.3853 4.61955,-1.0571 13.03395,-5.5257 13.03395,-5.5257 l -6.20169,-27.1013 c 0,0 -8.4144,4.4686 -13.03396,5.5257 -9.23915,2.1142 -19.04074,-0.729 -28.27988,1.3853 -4.61956,1.0571 -13.03397,5.5256 -13.03397,5.5256 z m -22.15132,-79.1161 18.39271,80.3761 -5.878,1.3451 -18.39287,-80.3761 z" /><path
         id="path1056"
         style="fill:#9fb485;fill-opacity:1;stroke:none;stroke-width:4.6813"
         d="m 681.04918,2792.008 -60.99609,-18.6094 a 95.999996,95.999996 0 0 1 37.13818,-41.4492 c 15.09985,-8.6552 32.06024,-13.3701 49.59082,-13.3725 20.87064,0 40.85789,6.6764 57.85401,18.6328 a 95.999996,95.999996 0 0 1 32.13574,42.709 l -42.7207,-8.5254 z" /><path
         style="fill:#ebf2f6;fill-opacity:1;stroke:none;stroke-width:2.83465"
         d="m 729.27654,2775.2486 25.6156,95.5987"
         id="path1885" /><path
         id="path2511"
         style="fill:#002e56;fill-opacity:1;stroke:none;stroke-width:4.6813"
         d="m 703.38951,2750.2614 -51.10693,-15.1523 a 95.999996,95.999996 0 0 1 54.70313,-17.1782 c 0.0435,1e-4 0.0869,0 0.13036,0 a 95.999996,95.999996 0 0 1 6.66211,0.2491 c 0.33152,0.024 0.66223,0.052 0.99317,0.079 a 95.999996,95.999996 0 0 1 5.96338,0.6723 c 0.42605,0.061 0.85102,0.1278 1.27587,0.1949 a 95.999996,95.999996 0 0 1 5.92969,1.122 c 0.30424,0.067 0.60764,0.1378 0.91113,0.208 a 95.999996,95.999996 0 0 1 30.68115,13.1587 z" /></g><g
       aria-label="Scenario Validaition Criteria"
       transform="scale(1,-1)"
       id="text528"
       style="font-weight:bold;font-size:50px;-inkscape-font-specification:'sans-serif Bold';fill:#ffffff;stroke:#ebf2f6;stroke-width:0.56693"><path
         d="m 578.39763,-2842.296 q 1.35,0.9 4.25,1.6 2.9,0.7 5.1,0.7 3.7,0 6.4,-1.15 2.75,-1.15 4.15,-3.15 1.45,-2 1.45,-4.6 0,-2.4 -1,-4.1 -1,-1.75 -2.95,-3.1 -1.9,-1.35 -5.05,-2.8 -3.5,-1.6 -5.3,-2.65 -1.8,-1.05 -2.8,-2.3 -0.95,-1.3 -0.95,-3.1 0,-2.4 1.95,-3.75 2,-1.35 5.3,-1.35 2.2,0 3.7,0.45 1.55,0.45 3.4,1.3 l 1.35,-3.05 q -1.75,-0.9 -4.05,-1.5 -2.25,-0.6 -4.65,-0.6 -3.25,0 -5.75,1.15 -2.45,1.1 -3.8,3.05 -1.3,1.95 -1.3,4.35 0,3.4 2.15,5.75 2.2,2.35 6.85,4.35 3.25,1.4 5.1,2.5 1.9,1.05 2.9,2.4 1,1.3 1,3.05 0,2.45 -2.15,4 -2.1,1.5 -6,1.5 -2.2,0 -4.5,-0.6 -2.25,-0.65 -3.85,-1.45 z"
         style="font-weight:normal;font-family:Catamaran;-inkscape-font-specification:Catamaran;stroke:none;stroke-width:0.566929;fill:#ffffff"
         id="path2081" /><path
         d="m 621.39766,-2845.046 q -1.75,0.9 -3.15,1.3 -1.4,0.4 -3.6,0.4 -3.65,0 -5.65,-2.65 -2,-2.65 -2,-6.9 0.05,-4.05 2.15,-6.65 2.1,-2.65 5.7,-2.65 2.1,0 3.4,0.4 1.35,0.4 3.35,1.25 l 1.2,-2.8 q -1.45,-0.95 -3.85,-1.55 -2.35,-0.65 -4,-0.65 -3.6,0 -6.3,1.65 -2.7,1.6 -4.2,4.5 -1.45,2.85 -1.45,6.55 0,3.75 1.4,6.7 1.4,2.9 4.05,4.55 2.65,1.6 6.25,1.6 1.65,0 4.05,-0.65 2.4,-0.6 3.9,-1.55 z"
         style="font-weight:normal;font-family:Catamaran;-inkscape-font-specification:Catamaran;stroke:none;stroke-width:0.566929;fill:#ffffff"
         id="path2083" /><path
         d="m 647.54767,-2852.146 q 0,-6 -2.55,-9.7 -2.5,-3.7 -7.8,-3.7 -3.5,0 -6.1,1.65 -2.55,1.6 -3.9,4.5 -1.3,2.85 -1.3,6.55 0,5.85 3.25,9.35 3.25,3.5 9.45,3.5 2.5,0 4.55,-0.65 2.05,-0.7 4.1,-1.85 l -1.25,-2.9 q -2.25,1.1 -3.9,1.6 -1.6,0.5 -3.55,0.5 -4.3,0 -6.4,-2.35 -2.05,-2.4 -2.2,-6.5 z m -17.5,-2.7 q 0.35,-3.4 2.1,-5.35 1.8,-2 4.9,-2 5.75,0 6.6,7.35 z"
         style="font-weight:normal;font-family:Catamaran;-inkscape-font-specification:Catamaran;stroke:none;stroke-width:0.566929;fill:#ffffff"
         id="path2085" /><path
         d="m 656.29769,-2857.846 q 1.75,-1.9 4,-3.15 2.3,-1.25 4.1,-1.25 2.35,0 3.35,1.5 1,1.5 1,4.2 v 15.85 h 3.95 v -16.4 q 0,-3.9 -1.9,-6.2 -1.85,-2.35 -5.7,-2.35 -2.3,0 -4.85,1.2 -2.55,1.2 -4.3,3 l -0.65,-3.45 h -2.95 v 24.25 h 3.95 z"
         style="font-weight:normal;font-family:Catamaran;-inkscape-font-specification:Catamaran;stroke:none;stroke-width:0.566929;fill:#ffffff"
         id="path2087" /><path
         d="m 680.84766,-2860.446 q 1.8,-0.8 3.3,-1.2 1.55,-0.45 3.7,-0.45 2.75,0 4,1.55 1.3,1.55 1.3,4.25 v 1.35 h -6.25 q -3.95,0 -6.35,1.95 -2.4,1.95 -2.4,5.45 0,3.35 2.1,5.45 2.15,2.1 6.2,2.1 1.9,0 3.9,-0.9 2,-0.95 3.35,-2.2 l 0.5,2.45 h 2.95 v -16.75 q 0,-2.35 -1.2,-4.2 -1.2,-1.85 -3.35,-2.9 -2.15,-1.05 -4.9,-1.05 -1.65,0 -4.2,0.6 -2.5,0.6 -3.8,1.5 z m 0.95,12.9 q 0,-2 1.3,-3.35 1.35,-1.4 3.7,-1.4 h 6.4 v 5.5 q -1.35,1.6 -3.15,2.6 -1.75,1 -3.7,1 -2.25,0 -3.4,-1.3 -1.15,-1.3 -1.15,-3.05 z"
         style="font-weight:normal;font-family:Catamaran;-inkscape-font-specification:Catamaran;stroke:none;stroke-width:0.566929;fill:#ffffff"
         id="path2089" /><path
         d="m 707.1477,-2857.346 q 1.7,-1.75 4.15,-3.05 2.45,-1.35 4.45,-1.35 l -0.95,-3.15 q -1.75,0 -4.05,1.25 -2.3,1.25 -3.95,2.65 l -1.25,-3.9 h -2.35 v 24.25 h 3.95 z"
         style="font-weight:normal;font-family:Catamaran;-inkscape-font-specification:Catamaran;stroke:none;stroke-width:0.566929;fill:#ffffff"
         id="path2091" /><path
         d="m 721.34768,-2869.746 q 1.1,0 1.9,-0.75 0.8,-0.8 0.8,-1.9 0,-1.1 -0.8,-1.9 -0.8,-0.8 -1.9,-0.8 -1.15,0 -1.9,0.8 -0.75,0.75 -0.75,1.9 0,1.15 0.75,1.9 0.75,0.75 1.9,0.75 z m 2.05,29.1 v -24.25 h -4 v 24.25 z"
         style="font-weight:normal;font-family:Catamaran;-inkscape-font-specification:Catamaran;stroke:none;stroke-width:0.566929;fill:#ffffff"
         id="path2093" /><path
         d="m 751.69767,-2852.696 q 0,3.7 -1.5,6.6 -1.45,2.85 -4.2,4.5 -2.75,1.6 -6.4,1.6 -3.5,0 -6.1,-1.6 -2.6,-1.65 -4,-4.55 -1.35,-2.95 -1.35,-6.7 0.05,-3.7 1.45,-6.55 1.45,-2.9 4.15,-4.5 2.7,-1.65 6.3,-1.65 5.45,0 8.55,3.5 3.1,3.45 3.1,9.35 z m -11.9,9.35 q 3.6,0 5.7,-2.6 2.1,-2.65 2.15,-6.7 0,-4.3 -2,-6.9 -2,-2.65 -5.65,-2.65 -3.6,0 -5.7,2.65 -2.1,2.6 -2.15,6.65 0,4.25 2,6.9 2,2.65 5.65,2.65 z"
         style="font-weight:normal;font-family:Catamaran;-inkscape-font-specification:Catamaran;stroke:none;stroke-width:0.566929;fill:#ffffff"
         id="path2095" /><path
         d="m 580.09763,-2811.7522 -3.9,0.6 13.05,33.75 h 3.8 l 12.6,-34 h -3.85 l -10.6,28.75 z"
         style="font-weight:normal;font-family:Catamaran;-inkscape-font-specification:Catamaran;stroke:none;stroke-width:0.566929;fill:#ffffff"
         id="path2097" /><path
         d="m 611.34759,-2797.2022 q 1.8,-0.8 3.3,-1.2 1.55,-0.45 3.7,-0.45 2.75,0 4,1.55 1.3,1.55 1.3,4.25 v 1.35 h -6.25 q -3.95,0 -6.35,1.95 -2.4,1.95 -2.4,5.45 0,3.35 2.1,5.45 2.15,2.1 6.2,2.1 1.9,0 3.9,-0.9 2,-0.95 3.35,-2.2 l 0.5,2.45 h 2.95 v -16.75 q 0,-2.35 -1.2,-4.2 -1.2,-1.85 -3.35,-2.9 -2.15,-1.05 -4.9,-1.05 -1.65,0 -4.2,0.6 -2.5,0.6 -3.8,1.5 z m 0.95,12.9 q 0,-2 1.3,-3.35 1.35,-1.4 3.7,-1.4 h 6.4 v 5.5 q -1.35,1.6 -3.15,2.6 -1.75,1 -3.7,1 -2.25,0 -3.4,-1.3 -1.15,-1.3 -1.15,-3.05 z"
         style="font-weight:normal;font-family:Catamaran;-inkscape-font-specification:Catamaran;stroke:none;stroke-width:0.566929;fill:#ffffff"
         id="path2099" /><path
         d="m 638.14764,-2777.4022 v -35.3 l -3.95,0.5 v 34.8 z"
         style="font-weight:normal;font-family:Catamaran;-inkscape-font-specification:Catamaran;stroke:none;stroke-width:0.566929;fill:#ffffff"
         id="path2101" /><path
         d="m 646.84768,-2806.5022 q 1.1,0 1.9,-0.75 0.8,-0.8 0.8,-1.9 0,-1.1 -0.8,-1.9 -0.8,-0.8 -1.9,-0.8 -1.15,0 -1.9,0.8 -0.75,0.75 -0.75,1.9 0,1.15 0.75,1.9 0.75,0.75 1.9,0.75 z m 2.05,29.1 v -24.25 h -4 v 24.25 z"
         style="font-weight:normal;font-family:Catamaran;-inkscape-font-specification:Catamaran;stroke:none;stroke-width:0.566929;fill:#ffffff"
         id="path2103" /><path
         d="m 674.89768,-2812.6522 v 35.25 h -2.4 l -0.75,-1.85 q -1.5,1.2 -3.25,1.85 -1.75,0.65 -3.3,0.65 -5.4,0 -8.5,-3.5 -3.05,-3.55 -3.05,-9.4 0,-3.7 1.4,-6.55 1.45,-2.9 4.05,-4.5 2.65,-1.6 6.2,-1.6 1.3,0 2.75,0.5 1.5,0.5 2.85,1.35 v -11.75 z m -9.75,32.55 q 1.8,0 3.15,-0.55 1.4,-0.6 2.6,-1.8 v -14.35 q -2.4,-2.15 -5.7,-2.15 -3.6,0 -5.55,2.6 -1.95,2.55 -2,6.65 0,4.35 1.9,7 1.95,2.6 5.6,2.6 z"
         style="font-weight:normal;font-family:Catamaran;-inkscape-font-specification:Catamaran;stroke:none;stroke-width:0.566929;fill:#ffffff"
         id="path2105" /><path
         d="m 683.69771,-2797.2022 q 1.8,-0.8 3.3,-1.2 1.55,-0.45 3.7,-0.45 2.75,0 4,1.55 1.3,1.55 1.3,4.25 v 1.35 h -6.25 q -3.95,0 -6.35,1.95 -2.4,1.95 -2.4,5.45 0,3.35 2.1,5.45 2.15,2.1 6.2,2.1 1.9,0 3.9,-0.9 2,-0.95 3.35,-2.2 l 0.5,2.45 h 2.95 v -16.75 q 0,-2.35 -1.2,-4.2 -1.2,-1.85 -3.35,-2.9 -2.15,-1.05 -4.9,-1.05 -1.65,0 -4.2,0.6 -2.5,0.6 -3.8,1.5 z m 0.95,12.9 q 0,-2 1.3,-3.35 1.35,-1.4 3.7,-1.4 h 6.4 v 5.5 q -1.35,1.6 -3.15,2.6 -1.75,1 -3.7,1 -2.25,0 -3.4,-1.3 -1.15,-1.3 -1.15,-3.05 z"
         style="font-weight:normal;font-family:Catamaran;-inkscape-font-specification:Catamaran;stroke:none;stroke-width:0.566929;fill:#ffffff"
         id="path2107" /><path
         d="m 707.99776,-2806.5022 q 1.1,0 1.9,-0.75 0.8,-0.8 0.8,-1.9 0,-1.1 -0.8,-1.9 -0.8,-0.8 -1.9,-0.8 -1.15,0 -1.9,0.8 -0.75,0.75 -0.75,1.9 0,1.15 0.75,1.9 0.75,0.75 1.9,0.75 z m 2.05,29.1 v -24.25 h -4 v 24.25 z"
         style="font-weight:normal;font-family:Catamaran;-inkscape-font-specification:Catamaran;stroke:none;stroke-width:0.566929;fill:#ffffff"
         id="path2109" /><path
         d="m 721.44775,-2801.2522 v -7.3 l -3.95,1.1 v 6.2 h -3.55 l 0.05,3 h 3.5 v 14.55 q 0,3.4 1.8,5.25 1.85,1.8 5,1.8 1.9,0 3.7,-0.85 l -0.9,-3.1 q -1.25,0.5 -2.2,0.5 -1.75,0 -2.6,-1.1 -0.85,-1.1 -0.85,-3.05 v -14 h 5.7 l -1.3,-3 z"
         style="font-weight:normal;font-family:Catamaran;-inkscape-font-specification:Catamaran;stroke:none;stroke-width:0.566929;fill:#ffffff"
         id="path2111" /><path
         d="m 734.24774,-2806.5022 q 1.1,0 1.9,-0.75 0.8,-0.8 0.8,-1.9 0,-1.1 -0.8,-1.9 -0.8,-0.8 -1.9,-0.8 -1.15,0 -1.9,0.8 -0.75,0.75 -0.75,1.9 0,1.15 0.75,1.9 0.75,0.75 1.9,0.75 z m 2.05,29.1 v -24.25 h -4 v 24.25 z"
         style="font-weight:normal;font-family:Catamaran;-inkscape-font-specification:Catamaran;stroke:none;stroke-width:0.566929;fill:#ffffff"
         id="path2113" /><path
         d="m 764.59774,-2789.4522 q 0,3.7 -1.5,6.6 -1.45,2.85 -4.2,4.5 -2.75,1.6 -6.4,1.6 -3.5,0 -6.1,-1.6 -2.6,-1.65 -4,-4.55 -1.35,-2.95 -1.35,-6.7 0.05,-3.7 1.45,-6.55 1.45,-2.9 4.15,-4.5 2.7,-1.65 6.3,-1.65 5.45,0 8.55,3.5 3.1,3.45 3.1,9.35 z m -11.9,9.35 q 3.6,0 5.7,-2.6 2.1,-2.65 2.15,-6.7 0,-4.3 -2,-6.9 -2,-2.65 -5.65,-2.65 -3.6,0 -5.7,2.65 -2.1,2.6 -2.15,6.65 0,4.25 2,6.9 2,2.65 5.65,2.65 z"
         style="font-weight:normal;font-family:Catamaran;-inkscape-font-specification:Catamaran;stroke:none;stroke-width:0.566929;fill:#ffffff"
         id="path2115" /><path
         d="m 773.29769,-2794.6022 q 1.75,-1.9 4,-3.15 2.3,-1.25 4.1,-1.25 2.35,0 3.35,1.5 1,1.5 1,4.2 v 15.85 h 3.95 v -16.4 q 0,-3.9 -1.9,-6.2 -1.85,-2.35 -5.7,-2.35 -2.3,0 -4.85,1.2 -2.55,1.2 -4.3,3 l -0.65,-3.45 h -2.95 v 24.25 h 3.95 z"
         style="font-weight:normal;font-family:Catamaran;-inkscape-font-specification:Catamaran;stroke:none;stroke-width:0.566929;fill:#ffffff"
         id="path2117" /><path
         d="m 602.34763,-2746.9085 q -1.45,-0.9 -4.05,-1.4 -2.6,-0.55 -4.45,-0.55 -4.8,0 -8.45,2.35 -3.65,2.35 -5.6,6.45 -1.95,4.05 -1.95,9.1 0,4.8 1.8,8.8 1.8,4 5.35,6.35 3.55,2.35 8.55,2.35 2.15,0 4.7,-0.6 2.6,-0.55 4.15,-1.35 l -1.5,-3 q -1.55,0.7 -3.35,1.1 -1.75,0.4 -4.15,0.4 -3.5,0 -6.1,-1.85 -2.6,-1.9 -3.95,-5.1 -1.35,-3.25 -1.35,-7.15 0,-4.15 1.55,-7.45 1.55,-3.3 4.25,-5.15 2.75,-1.85 6.05,-1.85 2.35,0 3.8,0.35 1.45,0.3 3.45,1.05 z"
         style="font-weight:normal;font-family:Catamaran;-inkscape-font-specification:Catamaran;stroke:none;stroke-width:0.566929;fill:#ffffff"
         id="path2119" /><path
         d="m 610.64759,-2730.8585 q 1.7,-1.75 4.15,-3.05 2.45,-1.35 4.45,-1.35 l -0.95,-3.15 q -1.75,0 -4.05,1.25 -2.3,1.25 -3.95,2.65 l -1.25,-3.9 h -2.35 v 24.25 h 3.95 z"
         style="font-weight:normal;font-family:Catamaran;-inkscape-font-specification:Catamaran;stroke:none;stroke-width:0.566929;fill:#ffffff"
         id="path2121" /><path
         d="m 624.84756,-2743.2585 q 1.1,0 1.9,-0.75 0.8,-0.8 0.8,-1.9 0,-1.1 -0.8,-1.9 -0.8,-0.8 -1.9,-0.8 -1.15,0 -1.9,0.8 -0.75,0.75 -0.75,1.9 0,1.15 0.75,1.9 0.75,0.75 1.9,0.75 z m 2.05,29.1 v -24.25 h -4 v 24.25 z"
         style="font-weight:normal;font-family:Catamaran;-inkscape-font-specification:Catamaran;stroke:none;stroke-width:0.566929;fill:#ffffff"
         id="path2123" /><path
         d="m 638.29756,-2738.0085 v -7.3 l -3.95,1.1 v 6.2 h -3.55 l 0.05,3 h 3.5 v 14.55 q 0,3.4 1.8,5.25 1.85,1.8 5,1.8 1.9,0 3.7,-0.85 l -0.9,-3.1 q -1.25,0.5 -2.2,0.5 -1.75,0 -2.6,-1.1 -0.85,-1.1 -0.85,-3.05 v -14 h 5.7 l -1.3,-3 z"
         style="font-weight:normal;font-family:Catamaran;-inkscape-font-specification:Catamaran;stroke:none;stroke-width:0.566929;fill:#ffffff"
         id="path2125" /><path
         d="m 669.29754,-2725.6585 q 0,-6 -2.55,-9.7 -2.5,-3.7 -7.8,-3.7 -3.5,0 -6.1,1.65 -2.55,1.6 -3.9,4.5 -1.3,2.85 -1.3,6.55 0,5.85 3.25,9.35 3.25,3.5 9.45,3.5 2.5,0 4.55,-0.65 2.05,-0.7 4.1,-1.85 l -1.25,-2.9 q -2.25,1.1 -3.9,1.6 -1.6,0.5 -3.55,0.5 -4.3,0 -6.4,-2.35 -2.05,-2.4 -2.2,-6.5 z m -17.5,-2.7 q 0.35,-3.4 2.1,-5.35 1.8,-2 4.9,-2 5.75,0 6.6,7.35 z"
         style="font-weight:normal;font-family:Catamaran;-inkscape-font-specification:Catamaran;stroke:none;stroke-width:0.566929;fill:#ffffff"
         id="path2127" /><path
         d="m 678.04757,-2730.8585 q 1.7,-1.75 4.15,-3.05 2.45,-1.35 4.45,-1.35 l -0.95,-3.15 q -1.75,0 -4.05,1.25 -2.3,1.25 -3.95,2.65 l -1.25,-3.9 h -2.35 v 24.25 h 3.95 z"
         style="font-weight:normal;font-family:Catamaran;-inkscape-font-specification:Catamaran;stroke:none;stroke-width:0.566929;fill:#ffffff"
         id="path2129" /><path
         d="m 692.24754,-2743.2585 q 1.1,0 1.9,-0.75 0.8,-0.8 0.8,-1.9 0,-1.1 -0.8,-1.9 -0.8,-0.8 -1.9,-0.8 -1.15,0 -1.9,0.8 -0.75,0.75 -0.75,1.9 0,1.15 0.75,1.9 0.75,0.75 1.9,0.75 z m 2.05,29.1 v -24.25 h -4 v 24.25 z"
         style="font-weight:normal;font-family:Catamaran;-inkscape-font-specification:Catamaran;stroke:none;stroke-width:0.566929;fill:#ffffff"
         id="path2131" /><path
         d="m 702.59754,-2733.9585 q 1.8,-0.8 3.3,-1.2 1.55,-0.45 3.7,-0.45 2.75,0 4,1.55 1.3,1.55 1.3,4.25 v 1.35 h -6.25 q -3.95,0 -6.35,1.95 -2.4,1.95 -2.4,5.45 0,3.35 2.1,5.45 2.15,2.1 6.2,2.1 1.9,0 3.9,-0.9 2,-0.95 3.35,-2.2 l 0.5,2.45 h 2.95 v -16.75 q 0,-2.35 -1.2,-4.2 -1.2,-1.85 -3.35,-2.9 -2.15,-1.05 -4.9,-1.05 -1.65,0 -4.2,0.6 -2.5,0.6 -3.8,1.5 z m 0.95,12.9 q 0,-2 1.3,-3.35 1.35,-1.4 3.7,-1.4 h 6.4 v 5.5 q -1.35,1.6 -3.15,2.6 -1.75,1 -3.7,1 -2.25,0 -3.4,-1.3 -1.15,-1.3 -1.15,-3.05 z"
         style="font-weight:normal;font-family:Catamaran;-inkscape-font-specification:Catamaran;stroke:none;stroke-width:0.566929;fill:#ffffff"
         id="path2133" /></g></g></svg>
