<svg width="321" height="34" viewBox="0 0 321 34" fill="none" xmlns="http://www.w3.org/2000/svg">
<g clip-path="url(#clip0_8308_162226)">
<rect x="0.612305" y="0.142578" width="33" height="33" rx="3" fill="#FFF9F1"/>
<path d="M-64.7308 38.0881C-36.6746 44.3655 -1.25128 38.2863 35.5454 6.41827C38.1431 4.16852 38.4256 0.238687 36.1759 -2.35901C33.9261 -4.95664 29.9965 -5.23817 27.3988 -2.98851C-6.74857 26.5851 -38.2073 31.2587 -61.9769 25.9523L-99.4402 16.9778C-102.782 16.1776 -106.14 18.238 -106.94 21.5798C-107.741 24.9217 -105.68 28.2793 -102.338 29.0798L-64.8219 38.0671L-64.7761 38.0786L-64.7308 38.0881Z" fill="#E56D52"/>
<path d="M-59.2502 27.641C-31.919 35.0581 -6.84749 41.2134 26.7569 30.9013C30.0421 29.8931 31.8876 26.4125 30.8795 23.1273C29.8714 19.8422 26.3914 17.9958 23.1063 19.0036C-6.84402 28.1943 -28.9024 22.9803 -55.9019 15.655L-92.7151 4.44775C-96.0025 3.44706 -99.4786 5.30015 -100.48 8.58753C-101.48 11.875 -99.6261 15.3519 -96.3386 16.3528L-59.4335 27.588L-59.3426 27.6161L-59.2502 27.641Z" fill="#C5C1F7"/>
<circle cx="6.22231" cy="6.22231" r="6.22231" transform="matrix(0.974 -0.226549 -0.226549 -0.974 18.8662 15.6426)" fill="#652C3B"/>
</g>
<path d="M315.915 28.0864C314.907 28.0864 314.043 27.9104 313.323 27.5584C312.603 27.1904 312.051 26.6624 311.667 25.9744C311.283 25.2704 311.091 24.4304 311.091 23.4544V18.3664C311.091 17.3744 311.283 16.5344 311.667 15.8464C312.051 15.1584 312.603 14.6384 313.323 14.2864C314.059 13.9184 314.923 13.7344 315.915 13.7344C316.939 13.7344 317.787 13.9104 318.459 14.2624C319.147 14.6144 319.659 15.1344 319.995 15.8224C320.347 16.5104 320.523 17.3584 320.523 18.3664V21.1504H314.955V23.8144C314.955 24.1664 314.995 24.4544 315.075 24.6784C315.155 24.9024 315.267 25.0624 315.411 25.1584C315.555 25.2544 315.723 25.3024 315.915 25.3024C316.107 25.3024 316.275 25.2624 316.419 25.1824C316.579 25.0864 316.699 24.9424 316.779 24.7504C316.875 24.5584 316.923 24.2944 316.923 23.9584V22.4944H320.523V23.8384C320.523 25.2464 320.115 26.3104 319.299 27.0304C318.483 27.7344 317.355 28.0864 315.915 28.0864ZM314.955 19.3264H316.923V17.9344C316.923 17.5664 316.875 17.2784 316.779 17.0704C316.699 16.8624 316.579 16.7184 316.419 16.6384C316.275 16.5584 316.099 16.5184 315.891 16.5184C315.699 16.5184 315.531 16.5664 315.387 16.6624C315.259 16.7584 315.155 16.9264 315.075 17.1664C314.995 17.3904 314.955 17.7184 314.955 18.1504V19.3264Z" fill="#FFF9F1"/>
<path d="M302.838 27.8466L300.054 13.9746H303.798L304.95 22.8306L306.006 13.9746H309.75L306.894 27.8466H302.838Z" fill="#FFF9F1"/>
<path d="M294.47 27.8471V13.9751H298.382V27.8471H294.47ZM294.446 11.6231V8.91113H298.382V11.6231H294.446Z" fill="#FFF9F1"/>
<path d="M290.136 27.991C289.096 27.991 288.296 27.839 287.736 27.535C287.176 27.231 286.784 26.791 286.56 26.215C286.352 25.623 286.248 24.911 286.248 24.079V16.543H284.904V13.975H286.248V9.75098H290.208V13.975H292.176V16.543H290.208V23.695C290.208 24.095 290.32 24.383 290.544 24.559C290.784 24.735 291.08 24.823 291.432 24.823C291.64 24.823 291.832 24.815 292.008 24.799C292.184 24.767 292.344 24.743 292.488 24.727V27.799C292.28 27.831 291.952 27.871 291.504 27.919C291.056 27.967 290.6 27.991 290.136 27.991Z" fill="#FFF9F1"/>
<path d="M276.985 28.0864C276.281 28.0864 275.689 27.9184 275.209 27.5824C274.729 27.2464 274.369 26.8224 274.129 26.3104C273.889 25.7824 273.769 25.2464 273.769 24.7024C273.769 23.8384 273.937 23.1104 274.273 22.5184C274.625 21.9264 275.081 21.4304 275.641 21.0304C276.201 20.6304 276.817 20.2944 277.489 20.0224C278.161 19.7344 278.825 19.4784 279.481 19.2544V17.8624C279.481 17.6224 279.457 17.4144 279.409 17.2384C279.361 17.0464 279.281 16.9024 279.169 16.8064C279.057 16.6944 278.889 16.6384 278.665 16.6384C278.441 16.6384 278.265 16.6864 278.137 16.7824C278.025 16.8784 277.945 17.0144 277.897 17.1904C277.849 17.3504 277.817 17.5344 277.801 17.7424L277.705 18.7504L274.057 18.6064C274.137 16.9424 274.577 15.7184 275.377 14.9344C276.193 14.1344 277.409 13.7344 279.025 13.7344C280.433 13.7344 281.481 14.1264 282.169 14.9104C282.873 15.6784 283.225 16.6784 283.225 17.9104V24.3904C283.225 24.9664 283.233 25.4704 283.249 25.9024C283.281 26.3344 283.313 26.7104 283.345 27.0304C283.393 27.3504 283.433 27.6224 283.465 27.8464H279.961C279.913 27.4784 279.857 27.0784 279.793 26.6464C279.729 26.2144 279.681 25.9584 279.649 25.8784C279.489 26.4544 279.185 26.9664 278.737 27.4144C278.305 27.8624 277.721 28.0864 276.985 28.0864ZM278.377 25.4464C278.537 25.4464 278.681 25.4144 278.809 25.3504C278.953 25.2864 279.081 25.1984 279.193 25.0864C279.305 24.9744 279.401 24.8624 279.481 24.7504V20.9584C279.161 21.1504 278.865 21.3504 278.593 21.5584C278.321 21.7504 278.089 21.9664 277.897 22.2064C277.705 22.4464 277.553 22.7104 277.441 22.9984C277.345 23.2704 277.297 23.5824 277.297 23.9344C277.297 24.3984 277.393 24.7664 277.585 25.0384C277.777 25.3104 278.041 25.4464 278.377 25.4464Z" fill="#FFF9F1"/>
<path d="M267.945 27.8471V13.9751H271.857V27.8471H267.945ZM267.921 11.6231V8.91113H271.857V11.6231H267.921Z" fill="#FFF9F1"/>
<path d="M263.611 27.991C262.571 27.991 261.771 27.839 261.211 27.535C260.651 27.231 260.259 26.791 260.035 26.215C259.827 25.623 259.723 24.911 259.723 24.079V16.543H258.379V13.975H259.723V9.75098H263.683V13.975H265.651V16.543H263.683V23.695C263.683 24.095 263.795 24.383 264.019 24.559C264.259 24.735 264.555 24.823 264.907 24.823C265.115 24.823 265.307 24.815 265.483 24.799C265.659 24.767 265.819 24.743 265.963 24.727V27.799C265.755 27.831 265.427 27.871 264.979 27.919C264.531 27.967 264.075 27.991 263.611 27.991Z" fill="#FFF9F1"/>
<path d="M252.7 27.8471V13.9751H256.612V27.8471H252.7ZM252.676 11.6231V8.91113H256.612V11.6231H252.676Z" fill="#FFF9F1"/>
<path d="M240.271 27.8464V13.9744H244.183V15.3664C244.695 14.8544 245.223 14.4544 245.767 14.1664C246.327 13.8784 246.911 13.7344 247.519 13.7344C248.095 13.7344 248.567 13.8784 248.935 14.1664C249.319 14.4384 249.607 14.8224 249.799 15.3184C249.991 15.7984 250.087 16.3504 250.087 16.9744V27.8464H246.199V17.5264C246.199 17.1904 246.143 16.9344 246.031 16.7584C245.919 16.5824 245.711 16.4944 245.407 16.4944C245.247 16.4944 245.055 16.5424 244.831 16.6384C244.623 16.7184 244.407 16.8384 244.183 16.9984V27.8464H240.271Z" fill="#FFF9F1"/>
<path d="M233.053 27.8463V8.40625H237.349V27.8463H233.053Z" fill="#FFF9F1"/>
<path d="M220.292 28.0864C219.076 28.0864 218.06 27.8144 217.244 27.2704C216.444 26.7264 215.788 25.8384 215.276 24.6064L217.94 23.4304C218.196 24.0544 218.492 24.5504 218.828 24.9184C219.18 25.2704 219.564 25.4464 219.98 25.4464C220.284 25.4464 220.508 25.3824 220.652 25.2544C220.812 25.1264 220.892 24.9504 220.892 24.7264C220.892 24.3584 220.748 24.0224 220.46 23.7184C220.188 23.4144 219.692 22.9664 218.972 22.3744L217.964 21.5344C217.228 20.9104 216.644 20.3104 216.212 19.7344C215.796 19.1424 215.588 18.4144 215.588 17.5504C215.588 16.7984 215.78 16.1344 216.164 15.5584C216.564 14.9824 217.092 14.5344 217.748 14.2144C218.404 13.8944 219.108 13.7344 219.86 13.7344C221.012 13.7344 221.972 14.0464 222.74 14.6704C223.508 15.2944 224.052 16.1744 224.372 17.3104L221.804 18.4624C221.708 18.1584 221.572 17.8544 221.396 17.5504C221.22 17.2464 221.012 16.9904 220.772 16.7824C220.532 16.5744 220.26 16.4704 219.956 16.4704C219.7 16.4704 219.492 16.5424 219.332 16.6864C219.188 16.8304 219.116 17.0224 219.116 17.2624C219.116 17.5664 219.284 17.8944 219.62 18.2464C219.972 18.5984 220.452 19.0224 221.06 19.5184L222.044 20.3824C222.444 20.7184 222.836 21.0784 223.22 21.4624C223.604 21.8464 223.916 22.2704 224.156 22.7344C224.412 23.1984 224.54 23.7264 224.54 24.3184C224.54 25.1184 224.34 25.8064 223.94 26.3824C223.54 26.9424 223.012 27.3664 222.356 27.6544C221.716 27.9424 221.028 28.0864 220.292 28.0864Z" fill="#FFF9F1"/>
<path d="M209.88 28.0864C208.664 28.0864 207.648 27.8144 206.832 27.2704C206.032 26.7264 205.376 25.8384 204.864 24.6064L207.528 23.4304C207.784 24.0544 208.08 24.5504 208.416 24.9184C208.768 25.2704 209.152 25.4464 209.568 25.4464C209.872 25.4464 210.096 25.3824 210.24 25.2544C210.4 25.1264 210.48 24.9504 210.48 24.7264C210.48 24.3584 210.336 24.0224 210.048 23.7184C209.776 23.4144 209.28 22.9664 208.56 22.3744L207.552 21.5344C206.816 20.9104 206.232 20.3104 205.8 19.7344C205.384 19.1424 205.176 18.4144 205.176 17.5504C205.176 16.7984 205.368 16.1344 205.752 15.5584C206.152 14.9824 206.68 14.5344 207.336 14.2144C207.992 13.8944 208.696 13.7344 209.448 13.7344C210.6 13.7344 211.56 14.0464 212.328 14.6704C213.096 15.2944 213.64 16.1744 213.96 17.3104L211.392 18.4624C211.296 18.1584 211.16 17.8544 210.984 17.5504C210.808 17.2464 210.6 16.9904 210.36 16.7824C210.12 16.5744 209.848 16.4704 209.544 16.4704C209.288 16.4704 209.08 16.5424 208.92 16.6864C208.776 16.8304 208.704 17.0224 208.704 17.2624C208.704 17.5664 208.872 17.8944 209.208 18.2464C209.56 18.5984 210.04 19.0224 210.648 19.5184L211.632 20.3824C212.032 20.7184 212.424 21.0784 212.808 21.4624C213.192 21.8464 213.504 22.2704 213.744 22.7344C214 23.1984 214.128 23.7264 214.128 24.3184C214.128 25.1184 213.928 25.8064 213.528 26.3824C213.128 26.9424 212.6 27.3664 211.944 27.6544C211.304 27.9424 210.616 28.0864 209.88 28.0864Z" fill="#FFF9F1"/>
<path d="M196.801 28.0864C196.097 28.0864 195.505 27.9184 195.025 27.5824C194.545 27.2464 194.185 26.8224 193.945 26.3104C193.705 25.7824 193.585 25.2464 193.585 24.7024C193.585 23.8384 193.753 23.1104 194.089 22.5184C194.441 21.9264 194.897 21.4304 195.457 21.0304C196.017 20.6304 196.633 20.2944 197.305 20.0224C197.977 19.7344 198.641 19.4784 199.297 19.2544V17.8624C199.297 17.6224 199.273 17.4144 199.225 17.2384C199.177 17.0464 199.097 16.9024 198.985 16.8064C198.873 16.6944 198.705 16.6384 198.481 16.6384C198.257 16.6384 198.081 16.6864 197.953 16.7824C197.841 16.8784 197.761 17.0144 197.713 17.1904C197.665 17.3504 197.633 17.5344 197.617 17.7424L197.521 18.7504L193.873 18.6064C193.953 16.9424 194.393 15.7184 195.193 14.9344C196.009 14.1344 197.225 13.7344 198.841 13.7344C200.249 13.7344 201.297 14.1264 201.985 14.9104C202.689 15.6784 203.041 16.6784 203.041 17.9104V24.3904C203.041 24.9664 203.049 25.4704 203.065 25.9024C203.097 26.3344 203.129 26.7104 203.161 27.0304C203.209 27.3504 203.249 27.6224 203.281 27.8464H199.777C199.729 27.4784 199.673 27.0784 199.609 26.6464C199.545 26.2144 199.497 25.9584 199.465 25.8784C199.305 26.4544 199.001 26.9664 198.553 27.4144C198.121 27.8624 197.537 28.0864 196.801 28.0864ZM198.193 25.4464C198.353 25.4464 198.497 25.4144 198.625 25.3504C198.769 25.2864 198.897 25.1984 199.009 25.0864C199.121 24.9744 199.217 24.8624 199.297 24.7504V20.9584C198.977 21.1504 198.681 21.3504 198.409 21.5584C198.137 21.7504 197.905 21.9664 197.713 22.2064C197.521 22.4464 197.369 22.7104 197.257 22.9984C197.161 23.2704 197.113 23.5824 197.113 23.9344C197.113 24.3984 197.209 24.7664 197.401 25.0384C197.593 25.3104 197.857 25.4464 198.193 25.4464Z" fill="#FFF9F1"/>
<path d="M181.973 32.4064V13.9744H185.885V14.9824C186.349 14.5664 186.845 14.2544 187.373 14.0464C187.901 13.8384 188.405 13.7344 188.885 13.7344C189.413 13.7344 189.861 13.8384 190.229 14.0464C190.613 14.2544 190.925 14.5504 191.165 14.9344C191.405 15.3024 191.581 15.7344 191.693 16.2304C191.805 16.7264 191.861 17.2544 191.861 17.8144V23.7904C191.861 24.6544 191.741 25.4064 191.501 26.0464C191.277 26.6864 190.941 27.1904 190.493 27.5584C190.045 27.9104 189.493 28.0864 188.837 28.0864C188.341 28.0864 187.837 27.9744 187.325 27.7504C186.829 27.5104 186.349 27.1904 185.885 26.7904V32.4064H181.973ZM186.917 25.5664C187.173 25.5664 187.373 25.4944 187.517 25.3504C187.661 25.2064 187.765 25.0224 187.829 24.7984C187.909 24.5584 187.949 24.2944 187.949 24.0064V17.5264C187.949 17.2544 187.917 17.0144 187.853 16.8064C187.789 16.5824 187.685 16.4064 187.541 16.2784C187.397 16.1504 187.213 16.0864 186.989 16.0864C186.781 16.0864 186.581 16.1344 186.389 16.2304C186.213 16.3104 186.045 16.4224 185.885 16.5664V25.2064C186.061 25.3184 186.229 25.4064 186.389 25.4704C186.565 25.5344 186.741 25.5664 186.917 25.5664Z" fill="#FFF9F1"/>
<path d="M163.662 27.8469V13.9749H167.502V15.0789C168.014 14.5829 168.542 14.2309 169.086 14.0229C169.646 13.8149 170.214 13.7109 170.79 13.7109C171.35 13.7109 171.83 13.8549 172.23 14.1429C172.646 14.4149 172.958 14.8229 173.166 15.3669C173.71 14.7589 174.278 14.3349 174.87 14.0949C175.478 13.8389 176.086 13.7109 176.694 13.7109C177.238 13.7109 177.71 13.8469 178.11 14.1189C178.51 14.3749 178.822 14.7589 179.046 15.2709C179.27 15.7669 179.382 16.3669 179.382 17.0709V27.8469H175.542V17.4789C175.542 17.0949 175.47 16.8229 175.326 16.6629C175.198 16.4869 174.998 16.3989 174.726 16.3989C174.566 16.3989 174.366 16.4469 174.126 16.5429C173.886 16.6229 173.654 16.7429 173.43 16.9029C173.43 16.9349 173.43 16.9669 173.43 16.9989C173.43 17.0149 173.43 17.0389 173.43 17.0709V27.8469H169.638V17.4789C169.638 17.0949 169.566 16.8229 169.422 16.6629C169.278 16.4869 169.07 16.3989 168.798 16.3989C168.622 16.3989 168.414 16.4469 168.174 16.5429C167.95 16.6229 167.726 16.7429 167.502 16.9029V27.8469H163.662Z" fill="#FFF9F1"/>
<path d="M156.38 28.0864C155.388 28.0864 154.524 27.9184 153.788 27.5824C153.068 27.2464 152.508 26.7424 152.108 26.0704C151.724 25.3984 151.532 24.5584 151.532 23.5504V18.2704C151.532 17.2624 151.724 16.4224 152.108 15.7504C152.508 15.0784 153.068 14.5744 153.788 14.2384C154.524 13.9024 155.388 13.7344 156.38 13.7344C157.372 13.7344 158.228 13.9024 158.948 14.2384C159.684 14.5744 160.252 15.0784 160.652 15.7504C161.052 16.4224 161.252 17.2624 161.252 18.2704V23.5504C161.252 24.5584 161.052 25.3984 160.652 26.0704C160.252 26.7424 159.684 27.2464 158.948 27.5824C158.228 27.9184 157.372 28.0864 156.38 28.0864ZM156.404 25.4944C156.66 25.4944 156.86 25.4304 157.004 25.3024C157.148 25.1584 157.244 24.9664 157.292 24.7264C157.356 24.4704 157.388 24.1664 157.388 23.8144V18.0064C157.388 17.6544 157.356 17.3584 157.292 17.1184C157.244 16.8624 157.148 16.6704 157.004 16.5424C156.86 16.3984 156.66 16.3264 156.404 16.3264C156.148 16.3264 155.948 16.3984 155.804 16.5424C155.66 16.6704 155.556 16.8624 155.492 17.1184C155.428 17.3584 155.396 17.6544 155.396 18.0064V23.8144C155.396 24.1664 155.428 24.4704 155.492 24.7264C155.556 24.9664 155.66 25.1584 155.804 25.3024C155.948 25.4304 156.148 25.4944 156.404 25.4944Z" fill="#FFF9F1"/>
<path d="M143.841 28.1346C142.369 28.1346 141.201 27.8706 140.337 27.3426C139.489 26.7986 138.889 26.0466 138.537 25.0866C138.185 24.1106 138.009 22.9666 138.009 21.6546V14.6466C138.009 13.3026 138.185 12.1506 138.537 11.1906C138.889 10.2146 139.489 9.46258 140.337 8.93458C141.201 8.40658 142.369 8.14258 143.841 8.14258C145.281 8.14258 146.401 8.38258 147.201 8.86258C148.017 9.32658 148.593 9.98258 148.929 10.8306C149.265 11.6786 149.433 12.6546 149.433 13.7586V15.4386H145.233V13.4946C145.233 13.1106 145.209 12.7426 145.161 12.3906C145.129 12.0386 145.017 11.7506 144.825 11.5266C144.633 11.2866 144.305 11.1666 143.841 11.1666C143.393 11.1666 143.057 11.2866 142.833 11.5266C142.625 11.7666 142.489 12.0706 142.425 12.4386C142.377 12.7906 142.353 13.1666 142.353 13.5666V22.7106C142.353 23.1426 142.385 23.5426 142.449 23.9106C142.529 24.2626 142.673 24.5506 142.881 24.7746C143.105 24.9826 143.425 25.0866 143.841 25.0866C144.289 25.0866 144.609 24.9746 144.801 24.7506C144.993 24.5106 145.113 24.2066 145.161 23.8386C145.209 23.4706 145.233 23.0946 145.233 22.7106V20.6706H149.433V22.3506C149.433 23.4546 149.265 24.4466 148.929 25.3266C148.609 26.1906 148.041 26.8786 147.225 27.3906C146.425 27.8866 145.297 28.1346 143.841 28.1346Z" fill="#FFF9F1"/>
<path d="M124.395 28.0864C123.403 28.0864 122.539 27.9184 121.803 27.5824C121.083 27.2464 120.523 26.7424 120.123 26.0704C119.739 25.3984 119.547 24.5584 119.547 23.5504V18.2704C119.547 17.2624 119.739 16.4224 120.123 15.7504C120.523 15.0784 121.083 14.5744 121.803 14.2384C122.539 13.9024 123.403 13.7344 124.395 13.7344C125.387 13.7344 126.243 13.9024 126.963 14.2384C127.699 14.5744 128.267 15.0784 128.667 15.7504C129.067 16.4224 129.267 17.2624 129.267 18.2704V23.5504C129.267 24.5584 129.067 25.3984 128.667 26.0704C128.267 26.7424 127.699 27.2464 126.963 27.5824C126.243 27.9184 125.387 28.0864 124.395 28.0864ZM124.419 25.4944C124.675 25.4944 124.875 25.4304 125.019 25.3024C125.163 25.1584 125.259 24.9664 125.307 24.7264C125.371 24.4704 125.403 24.1664 125.403 23.8144V18.0064C125.403 17.6544 125.371 17.3584 125.307 17.1184C125.259 16.8624 125.163 16.6704 125.019 16.5424C124.875 16.3984 124.675 16.3264 124.419 16.3264C124.163 16.3264 123.963 16.3984 123.819 16.5424C123.675 16.6704 123.571 16.8624 123.507 17.1184C123.443 17.3584 123.411 17.6544 123.411 18.0064V23.8144C123.411 24.1664 123.443 24.4704 123.507 24.7264C123.571 24.9664 123.675 25.1584 123.819 25.3024C123.963 25.4304 124.163 25.4944 124.419 25.4944Z" fill="#FFF9F1"/>
<path d="M113.267 27.8471V13.9751H117.179V27.8471H113.267ZM113.243 11.6231V8.91113H117.179V11.6231H113.243Z" fill="#FFF9F1"/>
<path d="M103.863 27.8466V13.9746H107.775V16.2786C108.223 15.4786 108.671 14.8706 109.119 14.4546C109.567 14.0226 110.111 13.8066 110.751 13.8066C110.879 13.8066 110.991 13.8146 111.087 13.8306C111.183 13.8306 111.271 13.8466 111.351 13.8786V17.7666C111.175 17.6866 110.975 17.6226 110.751 17.5746C110.543 17.5106 110.319 17.4786 110.079 17.4786C109.631 17.4786 109.215 17.5986 108.831 17.8386C108.447 18.0786 108.095 18.4066 107.775 18.8226V27.8466H103.863Z" fill="#FFF9F1"/>
<path d="M95.009 28.0864C94.305 28.0864 93.713 27.9184 93.233 27.5824C92.753 27.2464 92.393 26.8224 92.153 26.3104C91.913 25.7824 91.793 25.2464 91.793 24.7024C91.793 23.8384 91.961 23.1104 92.297 22.5184C92.649 21.9264 93.105 21.4304 93.665 21.0304C94.225 20.6304 94.841 20.2944 95.513 20.0224C96.185 19.7344 96.849 19.4784 97.505 19.2544V17.8624C97.505 17.6224 97.481 17.4144 97.433 17.2384C97.385 17.0464 97.305 16.9024 97.193 16.8064C97.081 16.6944 96.913 16.6384 96.689 16.6384C96.465 16.6384 96.289 16.6864 96.161 16.7824C96.049 16.8784 95.969 17.0144 95.921 17.1904C95.873 17.3504 95.841 17.5344 95.825 17.7424L95.729 18.7504L92.081 18.6064C92.161 16.9424 92.601 15.7184 93.401 14.9344C94.217 14.1344 95.433 13.7344 97.049 13.7344C98.457 13.7344 99.505 14.1264 100.193 14.9104C100.897 15.6784 101.249 16.6784 101.249 17.9104V24.3904C101.249 24.9664 101.257 25.4704 101.273 25.9024C101.305 26.3344 101.337 26.7104 101.369 27.0304C101.417 27.3504 101.457 27.6224 101.489 27.8464H97.985C97.937 27.4784 97.881 27.0784 97.817 26.6464C97.753 26.2144 97.705 25.9584 97.673 25.8784C97.513 26.4544 97.209 26.9664 96.761 27.4144C96.329 27.8624 95.745 28.0864 95.009 28.0864ZM96.401 25.4464C96.561 25.4464 96.705 25.4144 96.833 25.3504C96.977 25.2864 97.105 25.1984 97.217 25.0864C97.329 24.9744 97.425 24.8624 97.505 24.7504V20.9584C97.185 21.1504 96.889 21.3504 96.617 21.5584C96.345 21.7504 96.113 21.9664 95.921 22.2064C95.729 22.4464 95.577 22.7104 95.465 22.9984C95.369 23.2704 95.321 23.5824 95.321 23.9344C95.321 24.3984 95.417 24.7664 95.609 25.0384C95.801 25.3104 96.065 25.4464 96.401 25.4464Z" fill="#FFF9F1"/>
<path d="M80.1328 27.8464V13.9744H84.0448V15.3664C84.5568 14.8544 85.0848 14.4544 85.6288 14.1664C86.1888 13.8784 86.7728 13.7344 87.3808 13.7344C87.9568 13.7344 88.4288 13.8784 88.7968 14.1664C89.1808 14.4384 89.4688 14.8224 89.6608 15.3184C89.8528 15.7984 89.9488 16.3504 89.9488 16.9744V27.8464H86.0608V17.5264C86.0608 17.1904 86.0048 16.9344 85.8928 16.7584C85.7808 16.5824 85.5728 16.4944 85.2688 16.4944C85.1088 16.4944 84.9168 16.5424 84.6928 16.6384C84.4848 16.7184 84.2688 16.8384 84.0448 16.9984V27.8464H80.1328Z" fill="#FFF9F1"/>
<path d="M73.1551 28.0864C72.1471 28.0864 71.2831 27.9104 70.5631 27.5584C69.8431 27.1904 69.2911 26.6624 68.9071 25.9744C68.5231 25.2704 68.3311 24.4304 68.3311 23.4544V18.3664C68.3311 17.3744 68.5231 16.5344 68.9071 15.8464C69.2911 15.1584 69.8431 14.6384 70.5631 14.2864C71.2991 13.9184 72.1631 13.7344 73.1551 13.7344C74.1791 13.7344 75.0271 13.9104 75.6991 14.2624C76.3871 14.6144 76.8991 15.1344 77.2351 15.8224C77.5871 16.5104 77.7631 17.3584 77.7631 18.3664V21.1504H72.1951V23.8144C72.1951 24.1664 72.2351 24.4544 72.3151 24.6784C72.3951 24.9024 72.5071 25.0624 72.6511 25.1584C72.7951 25.2544 72.9631 25.3024 73.1551 25.3024C73.3471 25.3024 73.5151 25.2624 73.6591 25.1824C73.8191 25.0864 73.9391 24.9424 74.0191 24.7504C74.1151 24.5584 74.1631 24.2944 74.1631 23.9584V22.4944H77.7631V23.8384C77.7631 25.2464 77.3551 26.3104 76.5391 27.0304C75.7231 27.7344 74.5951 28.0864 73.1551 28.0864ZM72.1951 19.3264H74.1631V17.9344C74.1631 17.5664 74.1151 17.2784 74.0191 17.0704C73.9391 16.8624 73.8191 16.7184 73.6591 16.6384C73.5151 16.5584 73.3391 16.5184 73.1311 16.5184C72.9391 16.5184 72.7711 16.5664 72.6271 16.6624C72.4991 16.7584 72.3951 16.9264 72.3151 17.1664C72.2351 17.3904 72.1951 17.7184 72.1951 18.1504V19.3264Z" fill="#FFF9F1"/>
<path d="M61.6643 28.0864C60.6563 28.0864 59.7923 27.9024 59.0723 27.5344C58.3683 27.1664 57.8243 26.6384 57.4403 25.9504C57.0563 25.2624 56.8643 24.4304 56.8643 23.4544V18.3664C56.8643 17.3744 57.0563 16.5344 57.4403 15.8464C57.8243 15.1584 58.3683 14.6384 59.0723 14.2864C59.7923 13.9184 60.6563 13.7344 61.6643 13.7344C62.6563 13.7344 63.4963 13.8864 64.1843 14.1904C64.8883 14.4944 65.4243 14.9584 65.7923 15.5824C66.1603 16.1904 66.3443 16.9664 66.3443 17.9104V19.3744H62.5763V17.7904C62.5763 17.4224 62.5363 17.1424 62.4563 16.9504C62.3923 16.7424 62.2883 16.5984 62.1443 16.5184C62.0163 16.4384 61.8563 16.3984 61.6643 16.3984C61.4723 16.3984 61.3123 16.4544 61.1843 16.5664C61.0563 16.6624 60.9603 16.8304 60.8963 17.0704C60.8323 17.2944 60.8003 17.6144 60.8003 18.0304V23.7904C60.8003 24.4144 60.8723 24.8384 61.0163 25.0624C61.1763 25.2864 61.4003 25.3984 61.6883 25.3984C61.8963 25.3984 62.0643 25.3584 62.1923 25.2784C62.3203 25.1824 62.4163 25.0384 62.4803 24.8464C62.5443 24.6384 62.5763 24.3664 62.5763 24.0304V22.1824H66.3443V23.8624C66.3443 24.7904 66.1523 25.5744 65.7683 26.2144C65.4003 26.8384 64.8643 27.3104 64.1603 27.6304C63.4723 27.9344 62.6403 28.0864 61.6643 28.0864Z" fill="#FFF9F1"/>
<path d="M49.9602 28.1346C48.7442 28.1346 47.7282 27.9186 46.9122 27.4866C46.0962 27.0546 45.4802 26.3906 45.0642 25.4946C44.6482 24.5826 44.4162 23.4066 44.3682 21.9666L48.0402 21.4146C48.0562 22.2466 48.1282 22.9186 48.2562 23.4306C48.4002 23.9426 48.5922 24.3106 48.8322 24.5346C49.0882 24.7586 49.3922 24.8706 49.7442 24.8706C50.1922 24.8706 50.4802 24.7186 50.6082 24.4146C50.7522 24.1106 50.8242 23.7906 50.8242 23.4546C50.8242 22.6546 50.6322 21.9826 50.2482 21.4386C49.8642 20.8786 49.3442 20.3186 48.6882 19.7586L47.0082 18.2946C46.2722 17.6706 45.6482 16.9666 45.1362 16.1826C44.6402 15.3826 44.3922 14.3986 44.3922 13.2306C44.3922 11.5826 44.8802 10.3266 45.8562 9.46258C46.8322 8.58258 48.1602 8.14258 49.8402 8.14258C50.8802 8.14258 51.7122 8.31858 52.3362 8.67058C52.9762 9.02258 53.4562 9.48658 53.7762 10.0626C54.1122 10.6226 54.3362 11.2226 54.4482 11.8626C54.5762 12.4866 54.6482 13.0866 54.6642 13.6626L50.9682 14.1186C50.9522 13.5426 50.9122 13.0466 50.8482 12.6306C50.8002 12.1986 50.6882 11.8706 50.5122 11.6466C50.3362 11.4066 50.0642 11.2866 49.6962 11.2866C49.2962 11.2866 49.0002 11.4546 48.8082 11.7906C48.6322 12.1266 48.5442 12.4626 48.5442 12.7986C48.5442 13.5186 48.7122 14.1106 49.0482 14.5746C49.4002 15.0226 49.8562 15.4946 50.4162 15.9906L52.0242 17.4066C52.8722 18.1266 53.5842 18.9426 54.1602 19.8546C54.7522 20.7666 55.0482 21.8946 55.0482 23.2386C55.0482 24.1506 54.8402 24.9826 54.4242 25.7346C54.0082 26.4706 53.4162 27.0546 52.6482 27.4866C51.8962 27.9186 51.0002 28.1346 49.9602 28.1346Z" fill="#FFF9F1"/>
<defs>
<clipPath id="clip0_8308_162226">
<rect x="0.612305" y="0.142578" width="33" height="33" rx="3" fill="white"/>
</clipPath>
</defs>
</svg>
